<?xml version="1.0"?>
<svg xmlns="http://www.w3.org/2000/svg" xmlns:xlink="http://www.w3.org/1999/xlink" xmlns:svgjs="http://svgjs.com/svgjs" version="1.1" width="512" height="512" x="0" y="0" viewBox="0 0 512 512" style="enable-background:new 0 0 512 512" xml:space="preserve" class=""><g><circle xmlns="http://www.w3.org/2000/svg" cx="191.076" cy="150.977" r="12.579" fill="#ff75a0" data-original="#000000" style="" class=""/><circle xmlns="http://www.w3.org/2000/svg" cx="270.558" cy="150.977" r="12.579" fill="#ff75a0" data-original="#000000" style="" class=""/><path xmlns="http://www.w3.org/2000/svg" d="m511.154 391.937c-.53-4.11-4.291-7.019-8.4-6.484-4.11.53-7.013 4.291-6.484 8.4.48 3.724.723 7.533.723 11.32 0 48.305-39.299 87.604-87.604 87.604s-87.604-39.299-87.604-87.604 39.299-87.604 87.604-87.604c32.367 0 61.977 17.741 77.276 46.3 1.957 3.651 6.502 5.026 10.158 3.071 3.652-1.957 5.028-6.505 3.071-10.158-16.452-30.709-47.039-50.723-81.281-53.794-27.406-31.981-65.692-52.962-107.055-58.972 9.247-12.211 15.821-26.6 18.737-42.36 15.966-5.16 27.879-25.574 29.198-43.481 1.389-18.863-9.033-32.006-27.502-35.284v-64.439c0-29.906-24.331-54.236-54.237-54.236h-94.003c-29.906 0-54.236 24.331-54.236 54.236l.142 64.225c-19.277 2.88-30.227 16.195-28.806 35.498 1.387 18.846 14.228 39.504 30.575 43.874 2.938 15.527 9.431 29.712 18.528 41.782-39.286 5.371-75.461 23.991-102.893 53.197-30.347 32.314-47.061 74.535-47.061 118.887 0 11.857 9.646 21.503 21.503 21.503h232.449c4.145 0 7.504-3.359 7.504-7.504s-3.359-7.504-7.504-7.504h-232.449c-3.582 0-6.496-2.914-6.496-6.497 0-83.075 64.732-152.504 147.462-158.293 1.041.954 2.101 1.885 3.181 2.795l13.49 98.928c2.428 17.801 12.515 33.542 27.676 43.184l19.982 12.708c1.229.783 2.627 1.172 4.026 1.172 1.435 0 2.87-.411 4.12-1.232l19.278-12.663c14.728-9.675 24.54-25.238 26.921-42.697l13.349-97.897c.013-.094.015-.187.024-.281 1.56-1.266 3.091-2.567 4.573-3.923 37.342 2.915 72.627 19.187 99.205 45.449-51.38 5.55-91.515 49.178-91.515 102.009 0 5.874.503 11.631 1.456 17.238h-21.178c-4.145 0-7.504 3.359-7.504 7.504s3.359 7.504 7.504 7.504h24.917c13.55 40.831 52.096 70.366 97.415 70.366 56.579 0 102.611-46.031 102.611-102.611 0-4.425-.284-8.878-.846-13.236zm-373.194-204.055c-.077 0-.154.002-.232.002-9.569 0-20.803-15.766-21.911-30.81-1.118-15.185 9.618-19.181 18.818-19.859 4.52-.314 10.028-1.391 10.028-7.489v-31.364c0-13.061 10.625-23.686 23.685-23.686h4.646c4.145 0 7.504-3.359 7.504-7.504s-3.359-7.504-7.504-7.504h-4.646c-8.982 0-17.253 3.085-23.827 8.24v-9.458c0-21.631 17.598-39.229 39.229-39.229h94.003c21.631 0 39.23 17.598 39.23 39.229v9.347c-6.551-5.089-14.768-8.13-23.686-8.13h-87.32c-4.145 0-7.504 3.359-7.504 7.504s3.359 7.504 7.504 7.504h87.32c13.061 0 23.686 10.625 23.686 23.686v31.316c0 5.068 4.544 7.244 8.722 7.536 9.204.678 19.939 4.674 18.821 19.859-1.078 14.629-11.839 30.167-21.323 30.79-3.576.235-6.486 2.965-6.95 6.519-5.562 42.71-42.289 74.917-85.431 74.917-43.126 0-79.851-32.194-85.427-74.886-.485-3.74-3.673-6.53-7.435-6.53zm112.434 103.818-15.25 15.248c-2.741 2.742-7.203 2.741-9.941 0l-15.249-15.248c-2.647-2.647-2.73-6.892-.264-9.649 6.838 1.467 13.907 2.255 21.135 2.255 6.842 0 13.539-.713 20.035-2.031 2.263 2.758 2.109 6.85-.466 9.425zm-56.384 65.616-11.653-85.455c4.02 2.204 8.196 4.144 12.512 5.794-3.66 8.115-2.185 17.999 4.473 24.657l6.224 6.223-3.519 69.135c-4.23-5.963-7.023-12.918-8.037-20.354zm36.749 42.655-14.357-9.131 3.53-69.348c3.195 1.674 6.718 2.512 10.241 2.512s7.046-.838 10.241-2.512l3.554 69.802zm35.513-42.183c-1.005 7.37-3.768 14.289-7.953 20.234l-3.538-69.487 6.224-6.223c6.538-6.538 8.086-16.191 4.673-24.223 4.201-1.55 8.276-3.374 12.204-5.448z" fill="#ff75a0" data-original="#000000" style="" class=""/><path xmlns="http://www.w3.org/2000/svg" d="m197.433 208.811c0 4.145 3.359 7.504 7.504 7.504h50.316c4.145 0 7.504-3.359 7.504-7.504s-3.359-7.504-7.504-7.504h-50.316c-4.145.001-7.504 3.36-7.504 7.504z" fill="#ff75a0" data-original="#000000" style="" class=""/><path xmlns="http://www.w3.org/2000/svg" d="m468.807 369.535c-.158-6.721-2.991-12.92-7.974-17.455-9.63-8.764-24.539-8.258-33.944 1.143l-17.499 17.5-17.499-17.5c-9.404-9.403-24.313-9.906-33.944-1.143-4.984 4.535-7.815 10.735-7.973 17.456-.155 6.626 2.443 13.115 7.128 17.799l17.837 17.838-17.837 17.837c-4.602 4.601-7.136 10.719-7.136 17.226s2.534 12.625 7.135 17.226 10.718 7.134 17.225 7.134c6.506 0 12.623-2.533 17.226-7.134l17.837-17.838 17.838 17.838c4.602 4.601 10.719 7.134 17.225 7.134s12.623-2.533 17.226-7.134c9.498-9.499 9.498-24.953 0-34.452l-17.838-17.837 17.837-17.837c4.687-4.685 7.286-11.174 7.13-17.801zm-17.741 7.189-20.837 20.837c-4.197 4.198-4.197 11.028 0 15.226l20.837 20.837c3.647 3.646 3.647 9.581.001 13.227-1.767 1.766-4.116 2.74-6.614 2.74s-4.847-.973-6.613-2.74l-20.837-20.837c-2.034-2.033-4.738-3.153-7.613-3.153s-5.579 1.12-7.613 3.153l-20.836 20.837c-1.767 1.766-4.116 2.74-6.614 2.74s-4.847-.973-6.613-2.74c-1.766-1.766-2.74-4.115-2.74-6.613s.973-4.847 2.741-6.614l20.836-20.836c4.197-4.198 4.197-11.028 0-15.225l-20.837-20.838c-1.826-1.825-2.797-4.253-2.737-6.835.061-2.58 1.151-4.963 3.071-6.71 3.631-3.302 9.568-3.009 13.231.657l20.499 20.499c2.034 2.033 4.738 3.153 7.613 3.153s5.579-1.12 7.613-3.153l20.498-20.499c3.667-3.666 9.602-3.959 13.232-.657 1.921 1.748 3.011 4.13 3.072 6.71.058 2.581-.913 5.009-2.74 6.834z" fill="#ff75a0" data-original="#000000" style="" class=""/></g></svg>
